<mxfile host="app.diagrams.net" modified="2024-06-07T02:16:46.336Z" agent="Mozilla/5.0 (Windows NT 10.0; Win64; x64) AppleWebKit/537.36 (KHTML, like Gecko) Chrome/109.0.0.0 Safari/537.36" version="24.4.8" etag="Gb59wKRu9y_rBA3JnFc8" type="github">
  <diagram name="第 1 页" id="o5AKnuurSzkbrsZnWIt_">
    <mxGraphModel>
      <root>
        <mxCell id="0" />
        <mxCell id="1" parent="0" />
      </root>
    </mxGraphModel>
  </diagram>
</mxfile>
